<?xml version="1.0" encoding="UTF-8"?>
<svg id="a" data-name="图层 1" xmlns="http://www.w3.org/2000/svg" viewBox="0 0 350 350">
  <defs>
    <style>
      .b {
        fill: #231815;
      }

      .b, .c {
        stroke-width: 0px;
      }

      .c {
        fill: #f1ab3e;
      }
    </style>
  </defs>
  <circle class="c" cx="175" cy="175" r="175"/>
  <g>
    <path class="b" d="m76.65,114.88c1.28,1.8,2.08,2.89,2.4,3.27-.71,4.1-1.73,7.31-3.08,9.62-1.73,2.89-4.36,5.13-7.89,6.73-7.76,3.53-16,8.69-24.72,15.49-.77.58-6.06,6.16-15.87,16.74,12.76,19.75,24.56,35.78,35.4,48.1,4.94-2.56,9.62-7.02,14.04-13.37,6.48-9.3,10.23-14.46,11.25-15.49-.06-.51-.16-1.47-.29-2.89-.19-1.54-.32-2.79-.38-3.75-1.35-.06-3.24.03-5.67.29-2.69.32-4.59.48-5.67.48-4.36,0-7.79-1.6-10.29-4.81,1.47-4.36,4.52-6.73,9.14-7.12,4.55-.38,13.21-1.31,25.97-2.79,3.01-.38,5.77.1,8.27,1.44,2.5,1.41,4.14,3.4,4.91,5.96-1.35.64-3.33,1.67-5.96,3.08l-6.54,3.27c1.6,20.97,5.58,40.4,11.93,58.29-3.46,1.35-5.29,2.02-5.48,2.02-3.02.32-5.8-.77-8.37-3.27-2.5-2.37-3.88-5.13-4.14-8.27-.32-3.21-1.31-9.52-2.98-18.95-.13-.45-1.12-4.78-2.98-12.99-4.36,11.22-6.67,19.21-6.93,23.95-.19,2.57-1,5.74-2.41,9.52-.26.58-.93,2.18-2.02,4.81-.77,1.99-1.38,3.62-1.83,4.91-10,.38-18.08-4.01-24.24-13.18-2.57-3.91-13.56-20.87-32.99-50.89-.77-1.22-1.25-1.99-1.44-2.31-1.28-2.89-1.8-5.42-1.54-7.6.26-2.5,1.54-4.91,3.85-7.21,3.53-3.4,9.36-9.36,17.51-17.89,7.37-7.7,13.21-13.63,17.51-17.8,2.12-1.92,5.03-4.01,8.75-6.25.45-.26,2.05-1.15,4.81-2.69,1.99-1.15,3.59-2.12,4.81-2.89.96,1.35,2.02,2.82,3.17,4.42Z"/>
    <path class="b" d="m163.75,125.65c-6.99,2.37-12.41,4.23-16.26,5.58.26,3.66.67,9.36,1.25,17.12.51,7.38.93,13.12,1.25,17.22,5.26.06,12.44.13,21.55.19,10.45.06,17.63.13,21.55.19.9,1.99,1.96,4.33,3.17,7.02-7.38,2.37-11.25,3.56-11.64,3.56-2.76.13-14.56.1-35.4-.1-.06,3.59-.22,9.23-.48,16.93-.19,7.31-.32,12.95-.38,16.93,4.1.64,6.22.96,6.35.96,2.76-.26,13.5-1.31,32.22-3.17,3.72-.38,6.61.48,8.66,2.6,2.05,2.12,2.66,4.97,1.83,8.56-12.76,3.78-25.2,4.97-37.32,3.56-4.36.71-7.89,1.28-10.58,1.73-.96.9-1.48,2.15-1.54,3.75v2.12c.06,1.09.1,1.8.1,2.12,0,1.73-.35,3.08-1.06,4.04-.96,1.35-2.66,2.34-5.1,2.98-2.18-5.96-3.27-9.1-3.27-9.43,0-3.91.1-9.07.29-15.49.32-7.95.51-13.08.58-15.39.13-7.18.22-21.84.29-43.96v-21.93c-1.35-.45-3.14-.54-5.39-.29-.38,0-1.32.1-2.79.29-1.22.13-2.18.23-2.88.29-2.12.06-3.82-.22-5.1-.87-1.6-.9-2.82-2.47-3.66-4.71,1.86-3.59,3.62-5.87,5.29-6.83,1.79-1.02,4.26-.99,7.41.1,2.95.96,6.38,1.06,10.29.29,1.09-.19,2.76-.58,5-1.15,2.18-.58,3.85-.96,5-1.15,1.54-.32,10.96-2.69,28.28-7.12,0,.9.03,2.21.1,3.94v3.46c-3.46,1.22-9.33,3.24-17.6,6.06Z"/>
    <path class="b" d="m264.41,224.15c-4.94,6.99-11.16,11.86-18.66,14.62-2.37.83-5.32.93-8.85.29-3.27-.58-6.22-1.64-8.85-3.17-5.13-3.08-9.43-7.44-12.89-13.08-2.76-4.42-5.2-10.16-7.31-17.22-2.25-7.37-2.44-17.03-.58-28.95.58-4.1,2.6-7.31,6.06-9.62,3.33-2.24,7.15-3.14,11.45-2.69.77.06,2.44-.38,5-1.35,1.41-.51,3.88-1.47,7.41-2.89,3.14-1.22,5.61-2.18,7.41-2.89,4.55-1.67,8.72-.42,12.51,3.75,4.55,4.87,8.24,11.13,11.06,18.76,2.89,7.57,4.33,14.85,4.33,21.84-.64,8.27-3.34,15.81-8.08,22.6Zm-3.46-27.13c.25-.06.48-.13.67-.19-3.78-13.79-5.96-21.51-6.54-23.18-.58-1.54-1.51-3.04-2.79-4.52-1.35-1.54-2.69-2.5-4.04-2.89-4.68-1.35-9.56-.26-14.62,3.27-5,3.53-7.83,7.79-8.46,12.79-.13,1.03-.19,2.34-.19,3.94v3.94c-.45,11.61,3.08,22.48,10.58,32.61,1.67,2.25,3.62,3.4,5.87,3.46,2.24,0,4.33-1.06,6.25-3.17,1.35-1.54,2.05-2.34,2.12-2.4,7.89-5.45,11.35-13.31,10.39-23.57.19,0,.45-.03.77-.1Z"/>
    <path class="b" d="m287.45,133.16c-.52-1.67-.55-3.37-.1-5.1.58-2.24,2.34-5.1,5.29-8.56.51.58,1.28,1.38,2.31,2.4,1.03,1.09,1.79,1.89,2.31,2.4,5.2-1.79,13.02-4.49,23.47-8.08,2.56-.9,4.84-1.31,6.83-1.25,2.56.13,4.33,1.06,5.29,2.79.83,1.54.83,4.01,0,7.41-5.96,23.22-6.16,46.46-.58,69.74.9,3.91,1.41,6.83,1.54,8.75.13,3.33-.58,6.03-2.12,8.08-1.09,1.48-2.73,2.73-4.91,3.75-1.15.58-3.17,1.31-6.06,2.21-14.69,4.75-27.96,12.02-39.82,21.84-1.73-1.41-2.12-3.43-1.15-6.06.77-2.18,2.21-4.23,4.33-6.16,8.14-7.63,16.83-14.59,26.07-20.87,4.17-2.82,7.21-5.32,9.14-7.5,2.89-3.27,4.17-6.6,3.85-10-1.99-20.71-2.21-41.46-.67-62.24-2.5,1.03-6.25,2.57-11.26,4.62-5,2.05-8.75,3.59-11.25,4.62-4.23,1.8-7.41,2.12-9.52.96-1.47-.77-2.47-2.02-2.98-3.75Z"/>
  </g>
</svg>